# xmcd CD database file
#
# Track frame offsets:
#	150
#	14931
#	36822
#	51348
#	76280
#	86457
#	98288
#	120662
#	138807
#	157436
#	174499
#	191104
#	204342
#	220143
#	240433
#	256888
#	266377
#	283660
#
# Disc length: 4183 seconds
#
# Revision: 0
# Processed by: cddbd v1.4PL0 Copyright (c) Steve Scherf et al.
# Submitted via: CDex 1.50Beta7
#
DISCID=f8105512
DTITLE=Various Artist - Jackson St Jubilee - Disc 1 (Balm)
DYEAR=1900
DGENRE=Country
TTITLE0=Doug Mansfield and Lisa Miller/Messing Around With You
TTITLE1=Barb Waters/Come Dance With Me (Texicana)
TTITLE2=Silver Birch/Ghost Girl
TTITLE3=Ofays/That First Kiss
TTITLE4=Country Paydirt/Blue Eyed Jane
TTITLE5=Big Island/Hana Lei
TTITLE6=Jen Cloher/The Longing Song
TTITLE7=The Working Class Ringos/Given Everything
TTITLE8=The Wagons/Summertime
TTITLE9=Dan Kelly/What's On Your Mind
TTITLE10=Ma's Folley/Steal Love
TTITLE11=Horse Stories/Only Child
TTITLE12=Malcolm Hill/Moon (Goddess Rising)
TTITLE13=Rich Webb/3 Days Missing
TTITLE14=Problem Pony/Ramblin' Man
TTITLE15=Spiel Azoi/Oifn Pripitchick
TTITLE16=Rosie Westbrook/Desert
TTITLE17=Kylie Greer/My Pony Foundered
EXTD=
EXTT0=
EXTT1=
EXTT2=
EXTT3=
EXTT4=
EXTT5=
EXTT6=
EXTT7=
EXTT8=
EXTT9=
EXTT10=
EXTT11=
EXTT12=
EXTT13=
EXTT14=
EXTT15=
EXTT16=
EXTT17=
PLAYORDER=
